<svg width="500" height="136" viewBox="0 0 500 136" fill="none" xmlns="http://www.w3.org/2000/svg">
<g clip-path="url(#clip0)">
<path d="M0.299805 96.1649C0.299805 73.7132 0.299805 62.1472 0.299805 39.0151C9.82477 39.0151 14.5873 39.0151 24.7926 39.0151C29.5551 39.0151 33.6372 39.6955 36.3586 41.0562C39.7604 43.0973 42.4818 45.1383 43.8425 47.8598C45.8836 50.5812 46.5639 53.983 46.5639 57.3847C46.5639 61.4669 45.8836 64.1883 43.8425 66.9097C41.8014 70.3115 39.08 72.3525 35.6782 73.7132C41.1211 81.1971 43.8425 85.2793 49.2853 92.7632C43.8425 93.4435 40.4407 93.4435 34.9979 94.1239C30.2354 87.3203 28.1943 83.9186 23.4319 77.115C20.0301 77.115 17.989 77.115 13.9069 77.7954C13.9069 85.2793 13.9069 88.681 13.9069 96.1649C8.46406 96.1649 5.74264 96.1649 0.299805 96.1649ZM13.9069 66.2293C17.3087 66.2293 19.3497 66.2293 22.7515 66.2293C26.1533 66.2293 28.8747 65.549 30.9158 64.1883C32.2765 62.8276 33.6372 60.7865 33.6372 58.0651C33.6372 55.3437 32.9568 53.983 30.9158 52.6222C28.8747 51.2615 26.1533 50.5812 22.7515 50.5812C19.3497 50.5812 17.3087 50.5812 13.9069 50.5812C13.9069 56.7044 13.9069 60.1061 13.9069 66.2293Z" fill="#B2DDF7"/>
<path d="M56.7679 92.7634C56.7679 71.6724 56.7679 60.7867 56.7679 39.6958C73.7768 39.6958 81.941 39.6958 98.9499 39.6958C98.9499 43.7779 98.9499 45.8189 98.9499 49.9011C87.3839 49.9011 81.941 49.9011 70.375 49.9011C70.375 53.9832 70.375 56.0243 70.375 60.1064C81.2607 60.1064 86.7035 59.426 98.2695 59.426C98.2695 63.5082 98.2695 65.5492 98.2695 69.6314C87.3839 69.6314 81.941 70.3117 70.375 70.3117C70.375 74.3938 70.375 76.4349 70.375 81.1974C81.941 80.517 88.0642 80.517 99.6303 79.8367C99.6303 83.9188 99.6303 85.9599 99.6303 90.042C81.941 91.4027 73.7768 91.4027 56.7679 92.7634Z" fill="#B2DDF7"/>
<path d="M129.566 90.0419C122.762 90.0419 117.319 89.3616 112.557 86.6401C108.475 83.9187 105.753 80.517 104.393 75.0741C109.836 75.0741 112.557 75.0741 117.319 74.3938C118 76.4348 119.361 77.7955 121.402 78.4759C123.443 79.8366 126.164 79.8366 128.885 79.8366C131.607 79.8366 134.328 79.1562 135.689 78.4759C137.73 77.7955 138.41 76.4348 138.41 74.3938C138.41 73.7134 138.41 72.3527 137.73 71.6723C137.05 70.992 136.369 70.3116 135.009 69.6313C133.648 68.9509 130.927 68.9509 128.205 68.2706C125.484 68.2706 124.803 67.5902 122.082 67.5902C116.639 66.9099 113.237 65.5491 110.516 63.5081C107.795 61.467 107.114 58.7456 107.114 54.6635C107.114 51.2617 107.795 48.5403 109.836 45.8189C111.877 43.0974 114.598 41.7367 118 40.376C121.402 39.0153 124.803 38.335 129.566 38.335C135.689 38.335 141.132 39.6957 145.214 42.4171C149.296 45.1385 152.018 48.5403 152.698 53.3028C147.255 53.3028 144.534 53.3028 139.771 53.3028C139.091 51.9421 138.41 50.5813 136.369 49.901C134.328 49.2206 132.287 48.5403 129.566 48.5403C126.844 48.5403 124.803 49.2206 122.762 49.901C121.402 50.5813 120.041 51.9421 120.041 53.3028C120.041 54.6635 120.721 56.0242 122.082 56.7045C123.443 57.3849 126.164 58.0652 130.246 58.7456C132.968 58.7456 133.648 59.426 136.369 59.426C147.255 60.7867 152.698 65.5491 152.698 73.7134C152.698 77.1152 152.018 79.8366 149.977 82.558C147.935 85.2794 145.214 86.6401 141.812 88.0009C138.41 89.3616 134.328 90.0419 129.566 90.0419Z" fill="#B2DDF7"/>
<path d="M174.471 88.0009C169.028 88.0009 166.307 88.0009 160.864 88.0009C160.864 68.2707 160.864 58.7457 160.864 39.6958C166.307 39.6958 169.028 39.6958 174.471 39.6958C175.152 58.7457 175.152 68.2707 174.471 88.0009Z" fill="#B2DDF7"/>
<path d="M227.538 77.115C227.538 81.1971 227.538 82.5578 227.538 86.64C211.209 86.64 203.045 86.64 186.716 87.3203C186.716 68.2704 186.716 58.7454 186.716 39.0151C192.159 39.0151 194.881 39.0151 200.323 39.0151C200.323 53.983 200.323 62.1472 200.323 77.115C211.209 77.115 216.652 77.115 227.538 77.115Z" fill="#B2DDF7"/>
<path d="M249.31 86.64C243.867 86.64 241.146 86.64 235.703 86.64C235.703 67.59 235.703 58.0651 235.703 39.0151C241.146 39.0151 243.867 39.0151 249.31 39.0151C249.31 58.7454 249.31 67.59 249.31 86.64Z" fill="#B2DDF7"/>
<path d="M298.976 87.3206C297.615 83.2385 296.934 81.8777 294.893 77.7956C286.049 77.7956 281.967 77.7956 273.122 77.7956C271.761 81.8777 271.081 83.2385 269.04 87.3206C263.597 87.3206 260.876 87.3206 255.433 87.3206C264.277 68.2707 268.36 58.7457 277.204 39.6958C282.647 39.6958 285.368 39.6958 290.811 39.6958C300.336 58.7457 304.418 68.2707 313.263 87.3206C307.82 87.3206 305.099 87.3206 298.976 87.3206ZM277.884 68.2707C283.327 68.2707 286.049 68.2707 291.492 68.2707C288.77 61.4671 287.409 58.0653 284.688 51.9421C281.967 58.0653 280.606 61.4671 277.884 68.2707Z" fill="#B2DDF7"/>
<path d="M320.067 87.3203C320.067 68.2704 320.067 58.0651 320.067 39.0151C336.395 39.0151 344.559 39.0151 360.888 39.0151C360.888 43.0973 360.888 45.1383 360.888 49.2205C350.002 49.2205 343.879 49.2205 332.993 49.2205C332.993 53.3026 332.993 55.3437 332.993 59.4258C343.879 59.4258 349.322 59.4258 359.527 60.1061C359.527 64.1883 359.527 66.2293 359.527 69.6311C348.641 69.6311 343.199 69.6311 332.993 68.9508C332.993 76.4347 332.993 79.8364 332.993 87.3203C328.231 88.0007 325.509 88.0007 320.067 87.3203Z" fill="#B2DDF7"/>
<path d="M411.914 80.5168C411.914 84.5989 411.914 86.64 411.914 90.7221C395.586 90.0417 387.422 89.3614 371.093 88.681C371.093 68.9508 371.093 58.7454 371.093 39.0151C376.536 39.0151 379.257 39.0151 384.7 39.0151C384.7 55.3437 384.7 62.8276 384.7 79.1561C395.586 79.8364 401.029 79.8364 411.914 80.5168Z" fill="#B2DDF7"/>
<path d="M434.365 92.0831C428.922 92.0831 426.201 91.4027 420.758 91.4027C420.758 70.9921 420.758 60.1064 420.758 39.6958C426.201 39.6958 428.922 39.6958 434.365 39.6958C434.365 60.7867 434.365 70.9921 434.365 92.0831Z" fill="#B2DDF7"/>
<path d="M441.168 92.7634C449.333 81.8777 453.415 77.1153 461.579 65.5492C454.095 54.6636 450.693 49.9011 443.209 39.6958C449.333 39.6958 452.734 39.6958 458.858 39.6958C463.62 46.4993 465.661 49.2207 469.743 56.0243C473.825 49.2207 475.866 46.4993 480.629 39.6958C486.752 39.6958 490.154 39.6958 496.277 39.6958C488.793 50.5814 485.391 56.0243 477.907 66.2296C486.072 77.7956 490.154 83.9188 498.998 96.1652C492.875 95.4848 489.474 95.4848 483.35 94.8045C477.907 86.6402 475.186 82.5581 469.743 75.0742C464.981 82.5581 462.259 85.9599 456.816 93.4438C450.693 92.7634 447.292 92.7634 441.168 92.7634Z" fill="#B2DDF7"/>
<path d="M0.299805 96.1649C0.299805 73.7132 0.299805 62.1472 0.299805 39.0151C9.82477 39.0151 14.5873 39.0151 24.7926 39.0151C29.5551 39.0151 33.6372 39.6955 36.3586 41.0562C39.7604 43.0973 42.4818 45.1383 43.8425 47.8598C45.8836 50.5812 46.5639 53.983 46.5639 57.3847C46.5639 61.4669 45.8836 64.1883 43.8425 66.9097C41.8014 70.3115 39.08 72.3525 35.6782 73.7132C41.1211 81.1971 43.8425 85.2793 49.2853 92.7632C43.8425 93.4435 40.4407 93.4435 34.9979 94.1239C30.2354 87.3203 28.1943 83.9186 23.4319 77.115C20.0301 77.115 17.989 77.115 13.9069 77.7954C13.9069 85.2793 13.9069 88.681 13.9069 96.1649C8.46406 96.1649 5.74264 96.1649 0.299805 96.1649ZM13.9069 66.2293C17.3087 66.2293 19.3497 66.2293 22.7515 66.2293C26.1533 66.2293 28.8747 65.549 30.9158 64.1883C32.2765 62.8276 33.6372 60.7865 33.6372 58.0651C33.6372 55.3437 32.9568 53.983 30.9158 52.6222C28.8747 51.2615 26.1533 50.5812 22.7515 50.5812C19.3497 50.5812 17.3087 50.5812 13.9069 50.5812C13.9069 56.7044 13.9069 60.1061 13.9069 66.2293Z" fill="#B2DDF7"/>
<path d="M56.7679 92.7634C56.7679 71.6724 56.7679 60.7867 56.7679 39.6958C73.7768 39.6958 81.941 39.6958 98.9499 39.6958C98.9499 43.7779 98.9499 45.8189 98.9499 49.9011C87.3839 49.9011 81.941 49.9011 70.375 49.9011C70.375 53.9832 70.375 56.0243 70.375 60.1064C81.2607 60.1064 86.7035 59.426 98.2695 59.426C98.2695 63.5082 98.2695 65.5492 98.2695 69.6314C87.3839 69.6314 81.941 70.3117 70.375 70.3117C70.375 74.3938 70.375 76.4349 70.375 81.1974C81.941 80.517 88.0642 80.517 99.6303 79.8367C99.6303 83.9188 99.6303 85.9599 99.6303 90.042C81.941 91.4027 73.7768 91.4027 56.7679 92.7634Z" fill="#B2DDF7"/>
<path d="M129.566 90.0419C122.762 90.0419 117.319 89.3616 112.557 86.6401C108.475 83.9187 105.753 80.517 104.393 75.0741C109.836 75.0741 112.557 75.0741 117.319 74.3938C118 76.4348 119.361 77.7955 121.402 78.4759C123.443 79.8366 126.164 79.8366 128.885 79.8366C131.607 79.8366 134.328 79.1562 135.689 78.4759C137.73 77.7955 138.41 76.4348 138.41 74.3938C138.41 73.7134 138.41 72.3527 137.73 71.6723C137.05 70.992 136.369 70.3116 135.009 69.6313C133.648 68.9509 130.927 68.9509 128.205 68.2706C125.484 68.2706 124.803 67.5902 122.082 67.5902C116.639 66.9099 113.237 65.5491 110.516 63.5081C107.795 61.467 107.114 58.7456 107.114 54.6635C107.114 51.2617 107.795 48.5403 109.836 45.8189C111.877 43.0974 114.598 41.7367 118 40.376C121.402 39.0153 124.803 38.335 129.566 38.335C135.689 38.335 141.132 39.6957 145.214 42.4171C149.296 45.1385 152.018 48.5403 152.698 53.3028C147.255 53.3028 144.534 53.3028 139.771 53.3028C139.091 51.9421 138.41 50.5813 136.369 49.901C134.328 49.2206 132.287 48.5403 129.566 48.5403C126.844 48.5403 124.803 49.2206 122.762 49.901C121.402 50.5813 120.041 51.9421 120.041 53.3028C120.041 54.6635 120.721 56.0242 122.082 56.7045C123.443 57.3849 126.164 58.0652 130.246 58.7456C132.968 58.7456 133.648 59.426 136.369 59.426C147.255 60.7867 152.698 65.5491 152.698 73.7134C152.698 77.1152 152.018 79.8366 149.977 82.558C147.935 85.2794 145.214 86.6401 141.812 88.0009C138.41 89.3616 134.328 90.0419 129.566 90.0419Z" fill="#B2DDF7"/>
<path d="M174.471 88.0009C169.028 88.0009 166.307 88.0009 160.864 88.0009C160.864 68.2707 160.864 58.7457 160.864 39.6958C166.307 39.6958 169.028 39.6958 174.471 39.6958C175.152 58.7457 175.152 68.2707 174.471 88.0009Z" fill="#B2DDF7"/>
<path d="M227.538 77.115C227.538 81.1971 227.538 82.5578 227.538 86.64C211.209 86.64 203.045 86.64 186.716 87.3203C186.716 68.2704 186.716 58.7454 186.716 39.0151C192.159 39.0151 194.881 39.0151 200.323 39.0151C200.323 53.983 200.323 62.1472 200.323 77.115C211.209 77.115 216.652 77.115 227.538 77.115Z" fill="#B2DDF7"/>
<path d="M249.31 86.64C243.867 86.64 241.146 86.64 235.703 86.64C235.703 67.59 235.703 58.0651 235.703 39.0151C241.146 39.0151 243.867 39.0151 249.31 39.0151C249.31 58.7454 249.31 67.59 249.31 86.64Z" fill="#B2DDF7"/>
<path d="M298.976 87.3206C297.615 83.2385 296.934 81.8777 294.893 77.7956C286.049 77.7956 281.967 77.7956 273.122 77.7956C271.761 81.8777 271.081 83.2385 269.04 87.3206C263.597 87.3206 260.876 87.3206 255.433 87.3206C264.277 68.2707 268.36 58.7457 277.204 39.6958C282.647 39.6958 285.368 39.6958 290.811 39.6958C300.336 58.7457 304.418 68.2707 313.263 87.3206C307.82 87.3206 305.099 87.3206 298.976 87.3206ZM277.884 68.2707C283.327 68.2707 286.049 68.2707 291.492 68.2707C288.77 61.4671 287.409 58.0653 284.688 51.9421C281.967 58.0653 280.606 61.4671 277.884 68.2707Z" fill="#B2DDF7"/>
<path d="M320.067 87.3203C320.067 68.2704 320.067 58.0651 320.067 39.0151C336.395 39.0151 344.559 39.0151 360.888 39.0151C360.888 43.0973 360.888 45.1383 360.888 49.2205C350.002 49.2205 343.879 49.2205 332.993 49.2205C332.993 53.3026 332.993 55.3437 332.993 59.4258C343.879 59.4258 349.322 59.4258 359.527 60.1061C359.527 64.1883 359.527 66.2293 359.527 69.6311C348.641 69.6311 343.199 69.6311 332.993 68.9508C332.993 76.4347 332.993 79.8364 332.993 87.3203C328.231 88.0007 325.509 88.0007 320.067 87.3203Z" fill="#B2DDF7"/>
<path d="M411.914 80.5168C411.914 84.5989 411.914 86.64 411.914 90.7221C395.586 90.0417 387.422 89.3614 371.093 88.681C371.093 68.9508 371.093 58.7454 371.093 39.0151C376.536 39.0151 379.257 39.0151 384.7 39.0151C384.7 55.3437 384.7 62.8276 384.7 79.1561C395.586 79.8364 401.029 79.8364 411.914 80.5168Z" fill="#B2DDF7"/>
<path d="M434.365 92.0831C428.922 92.0831 426.201 91.4027 420.758 91.4027C420.758 70.9921 420.758 60.1064 420.758 39.6958C426.201 39.6958 428.922 39.6958 434.365 39.6958C434.365 60.7867 434.365 70.9921 434.365 92.0831Z" fill="#B2DDF7"/>
<path d="M441.168 92.7634C449.333 81.8777 453.415 77.1153 461.579 65.5492C454.095 54.6636 450.693 49.9011 443.209 39.6958C449.333 39.6958 452.734 39.6958 458.858 39.6958C463.62 46.4993 465.661 49.2207 469.743 56.0243C473.825 49.2207 475.866 46.4993 480.629 39.6958C486.752 39.6958 490.154 39.6958 496.277 39.6958C488.793 50.5814 485.391 56.0243 477.907 66.2296C486.072 77.7956 490.154 83.9188 498.998 96.1652C492.875 95.4848 489.474 95.4848 483.35 94.8045C477.907 86.6402 475.186 82.5581 469.743 75.0742C464.981 82.5581 462.259 85.9599 456.816 93.4438C450.693 92.7634 447.292 92.7634 441.168 92.7634Z" fill="#B2DDF7"/>
</g>
<defs>
<clipPath id="clip0">
<rect width="500" height="135.128" fill="white"/>
</clipPath>
</defs>
</svg>
